<svg height="300px" width="300px" fill="#000000" xmlns="http://www.w3.org/2000/svg" xmlns:xlink="http://www.w3.org/1999/xlink" version="1.1" x="0px" y="0px" viewBox="0 0 100 100" style="enable-background:new 0 0 100 100;" xml:space="preserve"><path d="M86.9,76.3c-2.8,0-5.3,1.5-6.6,3.8l-14-7.8c1.1-1.9,1.8-4.2,1.8-6.5c0-6.6-4.9-12-11.2-12.8l1.1-12.1  c0.1,0,0.2,0,0.2,0c4.1,0,7.4-3.3,7.4-7.4c0-1.8-0.6-3.4-1.6-4.6l11.3-11.2c1.3,1.2,3.1,2,5,2c4,0,7.3-3.3,7.3-7.3s-3.3-7.3-7.3-7.3  s-7.3,3.3-7.3,7.3c0,1.8,0.7,3.5,1.8,4.7L63.6,28.3c-1.3-1.4-3.2-2.3-5.3-2.3c-4.1,0-7.4,3.3-7.4,7.4c0,3.8,2.8,6.9,6.5,7.4l-1.1,12  c-0.3,0-0.7,0-1,0c-5.8,0-10.7,3.8-12.3,9.1L28.8,59c0.1-0.5,0.2-1.1,0.2-1.6c0-4.6-3.8-8.4-8.4-8.4s-8.4,3.8-8.4,8.4  c0,3.6,2.3,6.7,5.5,7.9l-5,17.2c-0.4-0.1-0.7-0.1-1.1-0.1c-3.4,0-6.2,2.8-6.2,6.2c0,3.4,2.8,6.2,6.2,6.2s6.2-2.8,6.2-6.2  c0-2.8-1.9-5.2-4.4-5.9l5-17.2c0.7,0.2,1.4,0.3,2.2,0.3c3.8,0,7.1-2.6,8.1-6.1l14.1,2.9c-0.3,1-0.4,2.1-0.4,3.2  c0,7.1,5.8,12.9,12.9,12.9c4.5,0,8.4-2.3,10.7-5.8l14,7.8c-0.5,1-0.7,2.1-0.7,3.2c0,4.2,3.4,7.7,7.7,7.7c4.2,0,7.7-3.4,7.7-7.7  C94.6,79.7,91.2,76.3,86.9,76.3z"/></svg>